<?xml version="1.0" encoding="UTF-8" standalone="no"?>
<!-- Created with PhotoLine 18.40B6 (www.pl32.com) -->
<!DOCTYPE svg PUBLIC "-//W3C//DTD SVG 1.1//EN" "http://www.w3.org/Graphics/SVG/1.1/DTD/svg11.dtd">
<svg width="25" height="18" version="1.1" xmlns="http://www.w3.org/2000/svg" xmlns:xlink="http://www.w3.org/1999/xlink">
  <g id="Detail View" transform="matrix(1 0 0 1 1 0)">
    <path fill-rule="evenodd" d="M5 4 L6 4 C6.5 4 7 4.5 7 5 L7 5 C7 5.5 6.5 6 6 6 L5 6 C4.5 6 4 5.5 4 5 L4 5 C4 4.5 4.5 4 5 4 Z M5 12 L6 12 C6.5 12 7 12.5 7 13 L7 13 C7 13.5 6.5 14 6 14 L5 14 C4.5 14 4 13.5 4 13 L4 13 C4 12.5 4.5 12 5 12 Z M5 8 L6 8 C6.5 8 7 8.5 7 9 L7 9 C7 9.5 6.5 10 6 10 L5 10 C4.5 10 4 9.5 4 9 L4 9 C4 8.5 4.5 8 5 8 Z M9 4 L18 4 C18.5 4 19 4.5 19 5 L19 5 C19 5.5 18.5 6 18 6 L9 6 C8.5 6 8 5.5 8 5 L8 5 C8 4.5 8.5 4 9 4 Z M9 12 L18 12 C18.5 12 19 12.5 19 13 L19 13 C19 13.5 18.5 14 18 14 L9 14 C8.5 14 8 13.5 8 13 L8 13 C8 12.5 8.5 12 9 12 Z M9 8 L18 8 C18.5 8 19 8.5 19 9 L19 9 C19 9.5 18.5 10 18 10 L9 10 C8.5 10 8 9.5 8 9 L8 9 C8 8.5 8.5 8 9 8 Z"/>
  </g>
  <g id="Tree View" transform="matrix(1 0 0 1 3 1)">
    <path fill-rule="evenodd" d="M9 2 L10 2 C10.5 2 11 2.5 11 3 L11 4 C11 4.5 10.5 5 10 5 L9 5 C8.5 5 8 4.5 8 4 L8 3 C8 2.5 8.5 2 9 2 Z M9 5 L10 5 L10 7 L13 7 C14.5 7 15 7.5 15 9 L15 10 L14 10 L14 9 C14 8 14 8 13 8 L10 8 L10 10 L9 10 L9 8 L6 8 C5 8 5 8 5 9 L5 10 L4 10 L4 9 C4 7.5 4.5 7 6 7 L9 7 Z M14 10 L15 10 C15.5 10 16 10.5 16 11 L16 12 C16 12.5 15.5 13 15 13 L14 13 C13.5 13 13 12.5 13 12 L13 11 C13 10.5 13.5 10 14 10 Z M4 10 L5 10 C5.5 10 6 10.5 6 11 L6 12 C6 12.5 5.5 13 5 13 L4 13 C3.5 13 3 12.5 3 12 L3 11 C3 10.5 3.5 10 4 10 Z M9 10 L10 10 C10.5 10 11 10.5 11 11 L11 12 C11 12.5 10.5 13 10 13 L9 13 C8.5 13 8 12.5 8 12 L8 11 C8 10.5 8.5 10 9 10 Z"/>
  </g>
  <g id="Pull Remote">
    <path fill-rule="evenodd" d="M10 6 L13 6 L13 10 L15.5 10 L11.5 15 L7.5 10 L10 10 Z M4.99 7.75 C4.95 7.5 4.93 7.25 4.93 7 C4.93 4.48 6.91 2.5 9.43 2.5 C11.45 2.5 13.12 3.77 13.71 5.57 C14.16 4.88 14.95 4.43 15.86 4.43 C17.3 4.43 18.43 5.56 18.43 7 C18.43 7.51 18.28 7.99 18.03 8.39 C19.75 8.78 21 10.29 21 12.14 C21 14.3 19.3 16 17.14 16 L7.5 16 C4.98 16 3 14.02 3 11.5 C3 9.92 3.78 8.55 4.99 7.75 Z"/>
  </g>
  <g id="Fetch Remote">
    <path fill-rule="evenodd" d="M11 7 L13 7 L13 11 L14.5 11 L12 14.5 L9.5 11 L11 11 Z M10 6 L14 6 L14 10 L16.5 10 L12 16 L7.5 10 L10 10 Z M4.99 7.75 C4.95 7.5 4.93 7.25 4.93 7 C4.93 4.48 6.91 2.5 9.43 2.5 C11.45 2.5 13.12 3.77 13.71 5.57 C14.16 4.88 14.95 4.43 15.86 4.43 C17.3 4.43 18.43 5.56 18.43 7 C18.43 7.51 18.28 7.99 18.03 8.39 C19.75 8.78 21 10.29 21 12.14 C21 14.3 19.3 16 17.14 16 L7.5 16 C4.98 16 3 14.02 3 11.5 C3 9.92 3.78 8.55 4.99 7.75 Z"/>
  </g>
  <g id="Push Remote" transform="matrix(1 0 0 -1 0 20)">
    <path fill-rule="evenodd" d="M10 6 L13 6 L13 10 L15.5 10 L11.5 15 L7.5 10 L10 10 Z M4.99 12.25 C4.95 12.5 4.93 12.75 4.93 13 C4.93 15.52 6.91 17.5 9.43 17.5 C11.45 17.5 13.12 16.23 13.71 14.42 C14.16 15.12 14.95 15.57 15.86 15.57 C17.3 15.57 18.43 14.44 18.43 13 C18.43 12.49 18.28 12.01 18.03 11.61 C19.75 11.22 21 9.71 21 7.86 C21 5.7 19.3 4 17.14 4 L7.5 4 C4.98 4 3 5.98 3 8.5 C3 10.08 3.78 11.45 4.99 12.25 Z"/>
  </g>
  <g id="Add Remote" transform="matrix(1.285714 0 0 1.285714 3 -2)">
    <path fill-rule="evenodd" d="M1.55 7.58 C1.52 7.39 1.5 7.2 1.5 7 C1.5 5.04 3.04 3.5 5 3.5 C6.57 3.5 7.87 4.49 8.33 5.89 C8.68 5.35 9.29 5 10 5 C11.12 5 12 5.88 12 7 C12 7.4 11.89 7.77 11.69 8.08 C13.03 8.38 14 9.56 14 11 C14 12.68 12.68 14 11 14 L3.5 14 C1.54 14 0 12.46 0 10.5 C0 9.27 0.61 8.2 1.55 7.58 Z M6.22 6.22 L7.78 6.22 L7.78 8.56 L10.11 8.56 L10.11 10.11 L7.78 10.11 L7.78 12.44 L6.22 12.44 L6.22 10.11 L3.89 10.11 L3.89 8.56 L6.22 8.56 Z"/>
  </g>
  <g id="Add Label">
    <g id="Tag" transform="matrix(1 0 0 1 5.499999 0)">
      <path fill-rule="evenodd" d="M12.14 4.03 C12.33 4.03 12.52 4.09 12.64 4.21 L18.02 9.59 C18.26 9.83 18.26 10.33 18.02 10.58 L14.06 14.54 C13.81 14.78 13.31 14.78 13.07 14.54 L7.69 9.16 C7.5 9 7.5 8.53 7.5 8.5 L7.5 4.5 C7.5 4.25 7.75 4 8 4 C12.05 4 12.1 4.01 12.14 4.03 Z M9.5 7 C9.5 6.44 9.94 6 10.5 6 C11.06 6 11.5 6.44 11.5 7 C11.5 7.56 11.06 8 10.5 8 C9.94 8 9.5 7.56 9.5 7 Z"/>
    </g>
    <g id="Square/Rectangle" transform="matrix(1 0 0 0.909091 0 1.363634)">
      <path fill-rule="evenodd" d="M5 4 L7 4 L7 7.3 L10 7.3 L10 9.5 L7 9.5 L7 12.8 L5 12.8 L5 9.5 L2 9.5 L2 7.3 L5 7.3 Z"/>
    </g>
  </g>
  <g id="Add Branch">
    <g transform="matrix(1 0 0 1 10 1)">
      <path fill-rule="evenodd" d="M4 4.74 C3.4 4.4 3 3.75 3 3 C3 1.88 3.88 1 5 1 C6.12 1 7 1.88 7 3 C7 3.75 6.6 4.4 6 4.74 L6 11.26 C6.6 11.6 7 12.25 7 13 C7 14.12 6.12 15 5 15 C3.88 15 3 14.12 3 13 C3 12.25 3.4 11.6 4 11.26 Z M4 13 C4 12.44 4.44 12 5 12 C5.56 12 6 12.44 6 13 C6 13.56 5.56 14 5 14 C4.44 14 4 13.56 4 13 Z M4 3 C4 2.44 4.44 2 5 2 C5.56 2 6 2.44 6 3 C6 3.56 5.56 4 5 4 C4.44 4 4 3.56 4 3 Z M10 5.74 C9.4 5.4 9 4.75 9 4 C9 2.88 9.88 2 11 2 C12.12 2 13 2.88 13 4 C13 4.75 12.6 5.4 12 5.74 L12 7 C12 9 11 10 9 10 L6 10 L6 8 L8 8 C10 8 10 8 10 5.74 Z M10 4 C10 3.44 10.44 3 11 3 C11.56 3 12 3.44 12 4 C12 4.56 11.56 5 11 5 C10.44 5 10 4.56 10 4 Z"/>
    </g>
    <g id="Square/Rectangle" transform="matrix(1 0 0 0.909091 0 1.363634)">
      <path fill-rule="evenodd" d="M5 4 L7 4 L7 7.3 L10 7.3 L10 9.5 L7 9.5 L7 12.8 L5 12.8 L5 9.5 L2 9.5 L2 7.3 L5 7.3 Z"/>
    </g>
  </g>
  <g id="Merge" transform="matrix(1 0 0 -1 3 17)">
    <path fill-rule="evenodd" d="M4 4.74 C3.4 4.4 3 3.75 3 3 C3 1.88 3.88 1 5 1 C6.12 1 7 1.88 7 3 C7 3.75 6.6 4.4 6 4.74 L6 11.26 C6.6 11.6 7 12.25 7 13 C7 14.12 6.12 15 5 15 C3.88 15 3 14.12 3 13 C3 12.25 3.4 11.6 4 11.26 Z M4 13 C4 12.44 4.44 12 5 12 C5.56 12 6 12.44 6 13 C6 13.56 5.56 14 5 14 C4.44 14 4 13.56 4 13 Z M4 3 C4 2.44 4.44 2 5 2 C5.56 2 6 2.44 6 3 C6 3.56 5.56 4 5 4 C4.44 4 4 3.56 4 3 Z M15 4.74 C14.4 4.4 14 3.75 14 3 C14 1.88 14.88 1 16 1 C17.12 1 18 1.88 18 3 C18 3.75 17.6 4.4 17 4.74 L17 6 C17 8 16 9 14 9 L11 9 L11 12 L7 8 L11 4 L11 7 L13 7 C15 7 15 7 15 4.74 Z M15 3 C15 2.44 15.44 2 16 2 C16.56 2 17 2.44 17 3 C17 3.56 16.56 4 16 4 C15.44 4 15 3.56 15 3 Z"/>
  </g>
  <g id="Cherry Pick" transform="matrix(1 0 0 -1 0 25.03125)">
    <path fill-rule="evenodd" d="M4 9 L6 9 L6 11.26 C6.6 11.6 7 12.25 7 13 C7 14.12 6.12 15 5 15 C3.88 15 3 14.12 3 13 C3 12.25 3.4 11.6 4 11.26 Z M4 13 C4 12.44 4.44 12 5 12 C5.56 12 6 12.44 6 13 C6 13.56 5.56 14 5 14 C4.44 14 4 13.56 4 13 Z M16 14 L13 14 L13 17 L9 13 L13 9 L13 12 L16 12 Z M19 14.74 C18.4 14.4 18 13.75 18 13 C18 12.24 18.4 11.59 19.01 11.25 L19 9 L21 9 L21 11.26 C21.6 11.6 22 12.25 22 13 C22 13.75 21.6 14.4 21 14.74 L21 18.26 C21.6 18.6 22 19.25 22 20 C22 21.12 21.12 22 20 22 C18.88 22 18 21.12 18 20 C18 19.25 18.4 18.6 19 18.26 Z M19 20 C19 19.44 19.44 19 20 19 C20.56 19 21 19.44 21 20 C21 20.56 20.56 21 20 21 C19.44 21 19 20.56 19 20 Z M19 13 C19 12.44 19.44 12 20 12 C20.56 12 21 12.44 21 13 C21 13.56 20.56 14 20 14 C19.44 14 19 13.56 19 13 Z"/>
  </g>
  <g id="Rebase" transform="matrix(1 0 0 -1 15 18.03125)">
    <path fill-rule="evenodd" d="M2 9.74 C1.4 9.4 1 8.75 1 8 C1 7.24 1.4 6.59 2.01 6.25 L2 6 L-3 6 L-5 5 L-3 4 L2 4 C3 4 4 5 4 6 L4 6.26 C4.6 6.6 5 7.25 5 8 C5 8.75 4.6 9.4 4 9.74 L4 13.26 C4.6 13.6 5 14.25 5 15 C5 16.12 4.12 17 3 17 C1.88 17 1 16.12 1 15 C1 14.25 1.4 13.6 2 13.26 Z M2 15 C2 14.44 2.44 14 3 14 C3.56 14 4 14.44 4 15 C4 15.56 3.56 16 3 16 C2.44 16 2 15.56 2 15 Z M2 8 C2 7.44 2.44 7 3 7 C3.56 7 4 7.44 4 8 C4 8.56 3.56 9 3 9 C2.44 9 2 8.56 2 8 Z M-9 2 L-7 2 L-7 3.26 C-6.4 3.6 -6 4.25 -6 5 C-6 6.12 -6.88 7 -8 7 C-9.12 7 -10 6.12 -10 5 C-10 4.25 -9.6 3.6 -9 3.26 Z M-9 5 C-9 4.44 -8.56 4 -8 4 C-7.44 4 -7 4.44 -7 5 C-7 5.56 -7.44 6 -8 6 C-8.56 6 -9 5.56 -9 5 Z M-9 10 L-7 10 L-7 8 L-9 8 Z M-9 16 L-7 16 L-7 14 L-9 14 Z M-9 13 L-7 13 L-7 11 L-9 11 Z"/>
  </g>
</svg>
