<?xml version="1.0" encoding="UTF-8" standalone="no"?>
<!-- Created with PhotoLine 18.40B6 (www.pl32.com) -->
<!DOCTYPE svg PUBLIC "-//W3C//DTD SVG 1.1//EN" "http://www.w3.org/Graphics/SVG/1.1/DTD/svg11.dtd">
<svg width="12" height="13" version="1.1" xmlns="http://www.w3.org/2000/svg" xmlns:xlink="http://www.w3.org/1999/xlink">
  <defs>
    <radialGradient id="grad0" cx="5.6" cy="10.99" r="15.34" gradientUnits="userSpaceOnUse" gradientTransform="matrix(1 0 0 1 3 0)">
      <stop offset="0.16" stop-color="#ff8e8e"/>
      <stop offset="1" stop-color="#ff0000"/>
    </radialGradient>
    <radialGradient id="grad1" cx="5.6" cy="10.99" r="15.34" gradientUnits="userSpaceOnUse" gradientTransform="matrix(1 0 0 1 3 0)">
      <stop offset="0.16" stop-color="#00de00"/>
      <stop offset="1" stop-color="#008000"/>
    </radialGradient>
    <radialGradient id="grad2" cx="5.6" cy="10.99" r="15.34" gradientUnits="userSpaceOnUse" gradientTransform="matrix(1 0 0 1 3 0)">
      <stop offset="0.16" stop-color="#ffffff"/>
      <stop offset="1" stop-color="#999999"/>
    </radialGradient>
  </defs>
  <g transform="matrix(1 0 0 1 -1 0)">
    <g id="deleted" transform="matrix(1 0 0 1 1 0)">
      <g transform="matrix(1 0 0 1 -3 0)">
        <path fill="url(#grad0)" fill-rule="evenodd" stroke="none" d="M9 1 L9 6 L13 6 L13 12 L5 12 L5 1 Z"/>
      </g>
      <g transform="matrix(1 0 0 1 -3 0)">
        <path fill="#ffffff" fill-rule="evenodd" stroke="none" d="M10 1.5 L13 5 L10 5 Z"/>
      </g>
      <g transform="matrix(1 0 0 1 -3 0)">
        <path fill="#c00000" fill-rule="evenodd" stroke="none" d="M9 1 L9 6 L13 6 L13 12 L5 12 L5 1 Z M10 1.5 L13 5 L10 5 Z M9 0 L10 0 L14 4.5 L14 5 L14 6 L14 13 L4 13 L4 0 Z"/>
      </g>
    </g>
    <g id="empty" transform="matrix(1 0 0 1 1 0)">
      <g transform="matrix(1 0 0 1 -3 0)">
        <path fill="url(#grad1)" fill-rule="evenodd" stroke="none" d="M9 1 L9 6 L13 6 L13 12 L5 12 L5 1 Z"/>
      </g>
      <g transform="matrix(1 0 0 1 -3 0)">
        <path fill="#ffffff" fill-rule="evenodd" stroke="none" d="M10 1.5 L13 5 L10 5 Z"/>
      </g>
      <g transform="matrix(1 0 0 1 -3 0)">
        <path fill="#005e00" fill-rule="evenodd" stroke="none" d="M9 1 L9 6 L13 6 L13 12 L5 12 L5 1 Z M10 1.5 L13 5 L10 5 Z M9 0 L10 0 L14 4.5 L14 5 L14 6 L14 13 L4 13 L4 0 Z"/>
      </g>
    </g>
    <g id="new" transform="matrix(1 0 0 1 1 0)">
      <g transform="matrix(1 0 0 1 -3 0)">
        <path fill="url(#grad2)" fill-rule="evenodd" stroke="none" d="M9 1 L9 6 L13 6 L13 12 L5 12 L5 1 Z"/>
      </g>
      <g transform="matrix(1 0 0 1 -3 0)">
        <path fill="#ffffff" fill-rule="evenodd" stroke="none" d="M10 1.5 L13 5 L10 5 Z"/>
      </g>
      <g transform="matrix(1 0 0 1 -3 0)">
        <path fill="#5e5e5e" fill-rule="evenodd" stroke="none" d="M9 1 L9 6 L13 6 L13 12 L5 12 L5 1 Z M10 1.5 L13 5 L10 5 Z M9 0 L10 0 L14 4.5 L14 5 L14 6 L14 13 L4 13 L4 0 Z"/>
      </g>
    </g>
  </g>
</svg>
