<?xml version="1.0" encoding="UTF-8" standalone="no"?>
<!-- Created with PhotoLine 18.40B6 (www.pl32.com) -->
<!DOCTYPE svg PUBLIC "-//W3C//DTD SVG 1.1//EN" "http://www.w3.org/Graphics/SVG/1.1/DTD/svg11.dtd">
<svg width="16" height="16" version="1.1" xmlns="http://www.w3.org/2000/svg" xmlns:xlink="http://www.w3.org/1999/xlink">
  <defs>
    <linearGradient id="grad0" x1="9.83" y1="2.26" x2="9.83" y2="11.91" gradientUnits="userSpaceOnUse" gradientTransform="matrix(1 0 0 1 0 1)">
      <stop offset="0.28" stop-color="#000000" stop-opacity="0.2"/>
      <stop offset="1" stop-color="#2b2b2b" stop-opacity="0.7"/>
    </linearGradient>
    <linearGradient id="grad1" x1="10.48" y1="7.13" x2="10.48" y2="11.96" gradientUnits="userSpaceOnUse" gradientTransform="matrix(1 0 0 1 0 1)">
      <stop offset="0" stop-color="#000000" stop-opacity="0.7"/>
      <stop offset="1" stop-color="#2b2b2b" stop-opacity="0.3"/>
    </linearGradient>
    <linearGradient id="grad2" x1="10.13" y1="3.26" x2="10.13" y2="12.91" gradientUnits="userSpaceOnUse" gradientTransform="matrix(1 0 0 1 -1 1)">
      <stop offset="0.09" stop-color="#000000" stop-opacity="0.2"/>
      <stop offset="1" stop-color="#000000" stop-opacity="0.7"/>
    </linearGradient>
  </defs>
  <g id="Folder">
    <g id="Closed" transform="matrix(1 0 0 1 0 -1)">
      <path fill-rule="evenodd" d="M11 5 L15 5 L15 14 L1 14 L1 5 L2 5 L2 4 C2 3 3 2 4 2 L8 2 C10 2 11 4 11 5 Z M10 5 L3 5 L3 4 C3 3 4 3 4.03 3 L8 3 C9 3 10 4 10 5 Z M2 6 L2 13 L14 13 L14 6 Z"/>
      <path fill="url(#grad0)" fill-rule="evenodd" d="M10 5 L3 5 L3 4 C3 3 4 3 4.03 3 L8 3 C9 3 10 4 10 5 Z M2 6 L2 13 L14 13 L14 6 Z"/>
    </g>
    <g id="Open" transform="matrix(1 0 0 1 0 -1)">
      <g id="Square/Rectangle">
        <path fill="url(#grad1)" fill-rule="evenodd" d="M5.75 8 L14.59 8 L11.59 13 L2.75 13 Z"/>
      </g>
      <path fill-rule="evenodd" d="M14 7 L14.5 7 C15.43 7 16.43 7 15.3 8.97 L12 14 L1 14 L1 5 L2 5 L2 4 C2 3 3 2 4 2 L8 2 C10 2 11 4 11 5 L13.39 5 L14 5 Z M2 12.25 L4.29 8.25 C5 7 5 7 6.05 7 L13 7 L13 6 L2 6 Z M10 5 L3 5 L3 4 C3 3 4 3 4.03 3 L8 3 C9 3 10 4 10 5 Z M5.75 8 L2.75 13 L11.59 13 L14.59 8 Z"/>
      <path fill="#000000" fill-opacity="0.3" fill-rule="evenodd" d="M2 12.25 L4.29 8.25 C5 7 5 7 6.05 7 L13 7 L13 6 L2 6 Z M10 5 L3 5 L3 4 C3 3 4 3 4.03 3 L8 3 C9 3 10 4 10 5 Z M5.75 8 L2.75 13 L11.59 13 L14.59 8 Z"/>
    </g>
  </g>
  <g id="Tag" transform="matrix(0.707107 -0.707107 0.707107 0.707107 -7.200956 9.081503)">
    <path fill-rule="evenodd" d="M14.78 6.22 C14.91 6.35 15 6.52 15 6.7 L15 14.3 C15 14.65 14.65 15 14.3 15 L8.7 15 C8.35 15 8 14.65 8 14.3 L8 6.7 C7.98 6.45 8.31 6.12 8.33 6.09 L11.16 3.27 C11.34 3.09 11.69 3.09 11.87 3.27 C14.73 6.13 14.76 6.17 14.78 6.22 Z M10.81 6.45 C11.2 6.05 11.82 6.05 12.22 6.45 C12.62 6.84 12.62 7.47 12.22 7.86 C11.82 8.26 11.2 8.26 10.81 7.86 C10.41 7.47 10.41 6.84 10.81 6.45 Z"/>
  </g>
  <g id="Branch" transform="matrix(1 0 0 1 1 0)">
    <path fill-rule="evenodd" d="M4 4.74 C3.4 4.4 3 3.75 3 3 C3 1.88 3.88 1 5 1 C6.12 1 7 1.88 7 3 C7 3.75 6.6 4.4 6 4.74 L6 11.26 C6.6 11.6 7 12.25 7 13 C7 14.12 6.12 15 5 15 C3.88 15 3 14.12 3 13 C3 12.25 3.4 11.6 4 11.26 Z M4 13 C4 12.44 4.44 12 5 12 C5.56 12 6 12.44 6 13 C6 13.56 5.56 14 5 14 C4.44 14 4 13.56 4 13 Z M4 3 C4 2.44 4.44 2 5 2 C5.56 2 6 2.44 6 3 C6 3.56 5.56 4 5 4 C4.44 4 4 3.56 4 3 Z"/>
    <g id="Remote" transform="matrix(1 0 0 1 6 1.5)">
      <path fill-rule="evenodd" d="M6 4.33 L6 6 C6 8.5 5 9 3 9 L0 9 L0 9 L0 7 L0 6.5 L3 6.5 C3.5 6.5 3.5 6.5 3.5 6 L3.5 4.33 C3.19 3.98 2.73 3.5 2.73 2.78 C2.73 1.66 3.61 0.94 4.73 0.94 C5.85 0.94 6.73 1.66 6.73 2.78 C6.73 3.5 6.31 3.98 6 4.33 Z M5.5 4 L5.5 6 C5.5 8 5 8.5 3 8.5 L0 8.5 L0 7 L2.5 7 C4 7 4 7 4 5 L4 4 C3.69 3.73 3.23 3.5 3.23 2.78 C3.23 1.94 3.89 1.44 4.73 1.44 C5.57 1.44 6.23 1.94 6.23 2.78 C6.23 3.5 5.81 3.73 5.5 4 Z"/>
    </g>
    <g id="Empty">
      <path fill-rule="evenodd" d="M12 5.13 L12 7 C12 9 11 10 9 10 L6 10 L6 8 L8 8 C10 8 10 8 10 5.74 L10 5.13 C9.69 4.85 9.5 4.45 9.5 4 C9.5 3.16 10.16 2.5 11 2.5 C11.84 2.5 12.5 3.16 12.5 4 C12.5 4.45 12.31 4.85 12 5.13 Z"/>
    </g>
    <g id="Local" transform="matrix(1 0 0 1 6 1)">
      <path fill-rule="evenodd" d="M4 4.74 C3.4 4.4 3 3.75 3 3 C3 1.88 3.88 1 5 1 C6.12 1 7 1.88 7 3 C7 3.75 6.6 4.4 6 4.74 L6 6 C6 8 5 9 3 9 L0 9 L0 7 L2 7 C4 7 4 7 4 4.74 Z M4 3 C4 2.44 4.44 2 5 2 C5.56 2 6 2.44 6 3 C6 3.56 5.56 4 5 4 C4.44 4 4 3.56 4 3 Z"/>
    </g>
  </g>
  <g id="Remote">
    <g id="Remote (1)" transform="matrix(1 0 0 1 1 -1)">
      <path fill="url(#grad2)" fill-rule="evenodd" d="M1.55 8.08 C1.52 7.89 1.5 7.7 1.5 7.5 C1.5 5.54 3.04 4 5 4 C6.57 4 7.87 4.49 8.33 5.89 C8.68 5.35 9.29 5 10 5 C11.12 5 12 5.88 12 7 C12 7.4 11.89 7.77 11.69 8.08 C13.03 8.38 14 9.56 14 11 C14 12.68 12.68 14 11 14 L3.5 14 C1.54 14 0 12.46 0 10.5 C0 9.27 0.61 8.7 1.55 8.08 Z"/>
    </g>
    <g id="Remote" transform="matrix(1 0 0 1 1 -1)">
      <path fill-rule="evenodd" d="M1.55 8.08 C1.52 7.89 1.5 7.7 1.5 7.5 C1.5 5.54 3.04 4 5 4 C6.57 4 7.87 4.49 8.33 5.89 C8.68 5.35 9.29 5 10 5 C11.12 5 12 5.88 12 7 C12 7.4 11.89 7.77 11.69 8.08 C13.03 8.38 14 9.56 14 11 C14 12.68 12.68 14 11 14 L3.5 14 C1.54 14 0 12.46 0 10.5 C0 9.27 0.61 8.7 1.55 8.08 Z M7.5 7.5 L9 7 C9 6.44 9.44 6 10 6 C10.56 6 11 6.44 11 7 L10.7 8 L11 9 C12.12 9 13 9.88 13 11 C13 12.12 12.12 13 11 13 L4 13 C3.84 12.98 3.67 13 3.5 13 C2.1 13 1 11.9 1 10.5 C1 9.36 1.73 8.92 2.75 8.61 C2.59 8.28 2.5 7.9 2.5 7.5 C2.5 6.1 3.6 5 5 5 C6.4 5 7.5 6.1 7.5 7.5 Z"/>
    </g>
  </g>
  <g id="Stage">
    <path fill-rule="evenodd" d="M9 2 L11.8 2 C12.9 2 14 3.1 14 4.2 L14 10.8 C14 11.9 12.9 13 11.8 13 L9 13 L9 12 L11.56 12 C12.28 12 13 11.28 13 10.56 L13 4.44 C13 3.72 12.28 3 11.56 3 L9 3 Z M2 5 L6 5 L6 2 L12 7.5 L6 13 L6.01 10 L2 10 Z"/>
  </g>
</svg>
